<?xml version="1.0" encoding="utf-8"?>
<!-- Generator: Adobe Illustrator 22.1.0, SVG Export Plug-In . SVG Version: 6.00 Build 0)  -->
<svg version="1.1" id="Layer_1" xmlns="http://www.w3.org/2000/svg" xmlns:xlink="http://www.w3.org/1999/xlink" x="0px" y="0px"
	 viewBox="0 0 101.2 50.5" style="enable-background:new 0 0 101.2 50.5;" xml:space="preserve">
<style type="text/css">
	.st0{fill:#E5A812;}
	.st1{opacity:0.7;clip-path:url(#SVGID_2_);fill:#333331;enable-background:new    ;}
	.st2{opacity:0.7;clip-path:url(#SVGID_4_);fill:#333331;enable-background:new    ;}
	.st3{fill:#F04E29;}
	.st4{fill:#9CCDE4;}
	.st5{fill:#0097C1;}
</style>
<g>
	<path class="st0" d="M25.2,1.1h8.3l10.9,16v-16h8.4v29h-8.4l-10.9-16v15.9h-8.3V1.1z"/>
	<g>
		<g>
			<g>
				<defs>
					<polygon id="SVGID_1_" points="25.2,1.1 33.5,1.1 44.5,17.2 44.5,1.1 52.9,1.1 52.9,30.2 44.5,30.2 33.5,14.2 33.5,30.1 
						25.2,30.1 					"/>
				</defs>
				<clipPath id="SVGID_2_">
					<use xlink:href="#SVGID_1_"  style="overflow:visible;"/>
				</clipPath>
				<path class="st1" d="M44.4,1.1h7.4l7.4,11.3l7.3-11.3h8.3L63.7,17.9v12.2h-9l-1-12.2L44.4,1.1z"/>
			</g>
		</g>
		<g>
			<g>
				<defs>
					<polygon id="SVGID_3_" points="25.2,1.1 33.5,1.1 44.5,17.2 44.5,1.1 52.9,1.1 52.9,30.2 44.5,30.2 33.5,14.2 33.5,30.1 
						25.2,30.1 					"/>
				</defs>
				<clipPath id="SVGID_4_">
					<use xlink:href="#SVGID_3_"  style="overflow:visible;"/>
				</clipPath>
				<path class="st2" d="M26.1,1.1h7.3l2.1,29h-9.5V1.1z"/>
			</g>
		</g>
	</g>
	<path class="st3" d="M44.5,1.1h8.4l7.3,11.3l7.3-11.3h8.3L64.7,17.9v12.2h-9V17.9L44.5,1.1z"/>
	<path class="st4" d="M25.2,1.1h8.3v29h-8.3V1.1z"/>
	<polygon class="st5" points="25.2,1.1 25.2,30.2 33.5,30.2 33.4,1.1 	"/>
</g>
<g>
	<path d="M0,45.8c0.1-1.2,0.2-2,0.3-2.7c0.1-0.6,0.1-1.1,0.2-1.4c0-0.3,0.1-0.6,0.1-0.6c0.1-0.4,0.2-0.7,0.3-1.2
		c0.1-0.4,0.3-0.8,0.5-1.2c0.2-0.4,0.4-0.7,0.7-0.9c0.3-0.2,0.7-0.4,1.2-0.4c0.2,0,0.4,0,0.6,0c0.2,0,0.3,0.1,0.5,0.1
		s0.3,0.2,0.4,0.3c0.1,0.1,0.3,0.2,0.5,0.4c0.1,0.1,0.2,0.2,0.2,0.2c0,0,0,0.1,0,0.2c0,0.2-0.1,0.3-0.2,0.4
		c-0.1,0.1-0.3,0.2-0.5,0.2c-0.2,0-0.3,0-0.4-0.1c-0.1-0.1-0.2-0.2-0.3-0.3c-0.1-0.1-0.2-0.2-0.3-0.3c-0.1-0.1-0.3-0.1-0.4-0.1
		c-0.2,0-0.3,0-0.5,0.1c-0.1,0.1-0.3,0.2-0.4,0.4c-0.1,0.2-0.2,0.3-0.2,0.5c-0.1,0.2-0.1,0.4-0.1,0.5l-0.8,5.6c0,0,0,0.1,0,0.2
		c0,0.1,0,0.2,0,0.2c0,0.1,0,0.2,0,0.3c0,0.1,0,0.2,0,0.4c0,0.1,0.1,0.2,0.1,0.3c0.1,0.1,0.1,0.1,0.3,0.1c0.1,0,0.1,0,0.2-0.1
		c0.6-0.4,1-0.8,1.4-1.3c0.4-0.5,0.8-1,1.1-1.6c0,0,0-0.1,0.1-0.2c0.1-0.1,0.1-0.2,0.2-0.3c0.1-0.1,0.1-0.2,0.1-0.3
		c0-0.1,0.1-0.2,0.1-0.2c0.1-0.2,0.1-0.3,0.2-0.5c0-0.2,0.1-0.3,0.1-0.5c0.1-0.1,0.1-0.3,0.2-0.3c0.1-0.1,0.3-0.1,0.5-0.1
		c0.2,0,0.3,0.1,0.5,0.2c0.2,0.1,0.2,0.3,0.2,0.5v0c-0.3,0.8-0.7,1.6-1.1,2.3c-0.5,0.7-1,1.4-1.5,2.1c-0.3,0.4-0.7,0.8-1.2,1
		c-0.5,0.3-1,0.4-1.5,0.4H1.3c-0.5-0.2-0.9-0.5-1.1-0.9C0.1,47.2,0,46.7,0,46.2V45.8z"/>
	<path d="M7.1,45.8l0.6-4.5c0-0.2,0.1-0.3,0.2-0.3c0.1-0.1,0.2-0.1,0.4-0.1c0.3,0,0.5,0.1,0.6,0.2c0.2,0.1,0.3,0.3,0.4,0.5h0
		c0.1,0,0.3,0,0.4-0.1c0.1-0.1,0.2-0.1,0.4-0.1c0.4,0,0.7,0.1,0.9,0.3c0.3,0.2,0.5,0.5,0.6,0.8c0.2,0.3,0.3,0.7,0.4,1.1
		c0.1,0.4,0.1,0.7,0.1,1c0,0.3-0.1,0.7-0.3,1.2c-0.2,0.4-0.4,0.8-0.7,1.2c-0.3,0.4-0.6,0.7-1,1c-0.4,0.3-0.7,0.4-1.1,0.4
		c-0.3,0-0.6-0.1-0.9-0.2c-0.2-0.2-0.5-0.4-0.6-0.6c-0.2-0.2-0.3-0.5-0.3-0.8C7.1,46.4,7.1,46.1,7.1,45.8L7.1,45.8z M8.6,45.9
		c0,0.1,0,0.2,0.1,0.4c0,0.2,0.1,0.3,0.1,0.4c0,0.1,0.1,0.2,0.2,0.3C9,47,9.1,47,9.3,47c0.2-0.1,0.3-0.3,0.5-0.5s0.3-0.4,0.5-0.6
		c0.2-0.2,0.3-0.4,0.4-0.6c0.1-0.2,0.2-0.5,0.2-0.7c0-0.4,0-0.8-0.1-1.1c-0.1-0.3-0.3-0.6-0.4-0.7c-0.2-0.1-0.4-0.2-0.7-0.1
		c-0.2,0.1-0.5,0.4-0.7,0.9c-0.1,0.3-0.2,0.7-0.3,1.1C8.6,45.1,8.6,45.5,8.6,45.9L8.6,45.9z"/>
	<path d="M12.7,41.9c0-0.3-0.1-0.6-0.1-0.9c0-0.3,0.1-0.4,0.3-0.5c0.2-0.1,0.3-0.1,0.5-0.1h0.3c0.2,0.1,0.3,0.2,0.4,0.3
		c0.1,0.1,0.1,0.2,0.1,0.4s0,0.3,0,0.4c0,0.2,0,0.3,0,0.4c0,0.1,0,0.2,0,0.3c0,0.1,0,0.3,0,0.4c0,0.2,0,0.3,0,0.4
		c0,0.1,0,0.2,0.1,0.2l1.5-2.9c0.1-0.1,0.2-0.2,0.3-0.3c0.1-0.1,0.3-0.1,0.4-0.1c0.3,0,0.4,0.1,0.6,0.1c0.1,0.1,0.2,0.2,0.3,0.3
		c0.1,0.1,0.1,0.3,0.1,0.4c0,0.2,0,0.4,0,0.6c0,0.1,0,0.2,0,0.4c0,0.2,0,0.4,0,0.6c0,0.2,0,0.4,0.1,0.6c0,0.2,0,0.3,0,0.4h0.1
		c0-0.1,0.1-0.2,0.1-0.5c0.1-0.2,0.1-0.5,0.2-0.7c0.1-0.3,0.2-0.5,0.2-0.7c0.1-0.2,0.1-0.4,0.2-0.5c0,0,0-0.1,0.1-0.1
		c0-0.1,0.1-0.2,0.1-0.2c0-0.1,0.1-0.2,0.1-0.2c0-0.1,0.1-0.1,0.1-0.2C19,40.1,19,40,19.1,40c0.1,0,0.2,0,0.3,0
		c0.3,0,0.5,0.1,0.7,0.2c0.2,0.1,0.3,0.3,0.3,0.5c0.1,0.2,0.1,0.5,0.2,0.7c0,0.3,0.1,0.5,0.1,0.7c0,0,0,0,0,0s0,0,0,0l1,5.1
		c0,0,0.1,0.1,0.1,0.1c0,0,0,0.1,0,0.1c0,0.1-0.1,0.3-0.2,0.4c-0.1,0.1-0.2,0.2-0.4,0.2c-0.2,0-0.4-0.1-0.6-0.2
		c-0.2-0.1-0.4-0.3-0.4-0.5l-0.8-4.1l-0.1-0.1c0,0.1-0.1,0.2-0.1,0.5c-0.1,0.3-0.2,0.6-0.3,1c-0.1,0.4-0.2,0.9-0.4,1.4
		c-0.1,0.5-0.3,1-0.4,1.6c0,0.1-0.1,0.2-0.2,0.2C17.8,48,17.7,48,17.7,48c-0.2,0-0.4,0-0.6-0.1c-0.2-0.1-0.3-0.1-0.3-0.3
		c-0.1-0.1-0.1-0.3-0.2-0.4c0-0.2-0.1-0.3-0.1-0.6c0,0,0-0.2,0-0.5s0-0.6-0.1-1c0-0.4-0.1-0.7-0.1-1.1c0-0.4-0.1-0.7-0.1-0.9
		c0,0,0-0.1,0-0.1s0,0,0-0.1c0,0,0,0,0-0.1c0,0,0-0.1-0.1-0.1L15.6,44L14.8,47l-0.2,1.1c0,0.1,0,0.1-0.1,0.2
		c-0.1,0.1-0.1,0.1-0.2,0.1c-0.1,0-0.1,0-0.2,0.1c-0.1,0-0.1,0-0.2,0c-0.3,0-0.5-0.1-0.7-0.3C13.1,48,13,47.8,13,47.6
		c0-0.1,0-0.2,0-0.5c0-0.2,0-0.5-0.1-0.8c0-0.3,0-0.7-0.1-1c0-0.4,0-0.7-0.1-1c0-0.3,0-0.6-0.1-0.9c0-0.2,0-0.4,0-0.5v-0.1
		C12.7,42.5,12.7,42.2,12.7,41.9z"/>
	<path d="M29.4,43.5c0,0.2,0,0.4-0.1,0.5c0,0.1-0.1,0.2-0.1,0.3c-0.1,0.1-0.2,0.2-0.3,0.3c-0.1,0.1-0.3,0.2-0.5,0.4
		c-0.2,0.2-0.5,0.4-0.8,0.7c-0.3,0.3-0.7,0.7-1.2,1.1c-0.2,0.2-0.4,0.4-0.6,0.5c-0.2,0.2-0.4,0.4-0.6,0.5c-0.2,0.1-0.4,0.3-0.7,0.4
		c-0.2,0.1-0.5,0.1-0.7,0.1c-0.5,0-0.9-0.2-1.1-0.5c-0.2-0.3-0.3-0.7-0.3-1.2c0-0.3,0-0.5,0-0.7c0-0.2,0.1-0.5,0.1-0.8
		c-0.1-0.1-0.2-0.2-0.3-0.3C22,44.8,22,44.7,22,44.5c0-0.1,0-0.2,0.1-0.3c0.1,0,0.1-0.1,0.2-0.1c0.1,0,0.2,0,0.3-0.1
		c0.1,0,0.1-0.1,0.2-0.1c0-0.1,0.1-0.2,0.1-0.4c0.1-0.2,0.1-0.4,0.2-0.6c0.1-0.2,0.1-0.4,0.2-0.6c0.1-0.2,0.1-0.3,0.1-0.4
		c0.1-0.2,0.2-0.4,0.3-0.6c0.1-0.2,0.2-0.4,0.3-0.5c0.1-0.2,0.3-0.3,0.5-0.4c0.2-0.1,0.4-0.2,0.6-0.2c0.1,0,0.3,0.1,0.5,0.2
		c0.2,0.1,0.4,0.3,0.6,0.5c0.2,0.2,0.3,0.4,0.5,0.6c0.1,0.2,0.2,0.4,0.2,0.5c0,0.2,0,0.3-0.1,0.5c-0.1,0.1-0.2,0.3-0.3,0.4
		c-0.1,0.1-0.3,0.2-0.4,0.3c-0.1,0.1-0.3,0.2-0.4,0.3c0,0,0,0-0.1,0c0,0-0.1,0-0.1,0.1c0,0,0,0-0.1,0.1c0,0-0.1,0.1-0.1,0.1
		c0,0-0.1,0.1-0.1,0.1c0,0-0.1,0.1-0.1,0.1c0,0-0.1,0.1-0.2,0.2c-0.1,0.1-0.2,0.2-0.3,0.2c-0.1,0.1-0.2,0.2-0.3,0.2
		c-0.1,0.1-0.2,0.1-0.2,0.1L24,45.1c0,0,0,0.1-0.1,0.3c0,0.2,0,0.3-0.1,0.5s0,0.4-0.1,0.6c0,0.2,0,0.4,0,0.5c0,0,0,0,0,0
		c0,0,0,0,0.1,0c0.1,0,0.2,0,0.3-0.1c0.1-0.1,0.2-0.1,0.3-0.2l2.8-2.6l0.7-1.1c0.1-0.1,0.2-0.2,0.3-0.3c0.2-0.1,0.3-0.2,0.5-0.2
		c0.2,0,0.3,0,0.5,0.2C29.3,42.9,29.4,43.2,29.4,43.5z M25.6,42.2c0.1,0,0.1-0.1,0.1-0.2c0-0.1,0-0.2-0.1-0.2
		c-0.1-0.1-0.1-0.1-0.2-0.1c-0.1,0-0.2,0-0.2,0.1c0,0-0.1,0.1-0.2,0.3c-0.1,0.1-0.2,0.3-0.3,0.4c-0.1,0.1-0.2,0.3-0.2,0.4
		c-0.1,0.1-0.1,0.1,0,0.1L25.6,42.2z"/>
	<path d="M36,43.4c-0.2,0-0.3,0-0.4,0.1c-0.1,0.1-0.3,0.1-0.5,0.1c0,0-0.1,0-0.2,0c-0.1,0-0.2,0-0.2,0c0-0.1-0.1-0.1-0.2-0.1
		c-0.1,0-0.1-0.1-0.2-0.1c-0.1,0-0.1-0.1-0.1-0.1c0-0.1-0.1-0.1-0.1-0.2c0-0.2,0.1-0.3,0.2-0.4c0.1-0.1,0.3-0.2,0.5-0.3
		c0.2-0.1,0.4-0.2,0.6-0.2c0.2-0.1,0.3-0.2,0.5-0.2V41c0-0.9,0-1.7-0.1-2.6c-0.1-0.9-0.1-1.7-0.1-2.6c0-0.2,0.1-0.4,0.2-0.5
		c0.1-0.1,0.3-0.1,0.5-0.1c0.2,0,0.4,0.1,0.5,0.2c0.1,0.1,0.2,0.3,0.2,0.5c0,0.2,0.1,0.4,0.1,0.6c0,0.2,0,0.4,0,0.5
		c0,0.2,0,0.4,0,0.8s0,0.8,0.1,1.2c0,0.4,0,0.8,0.1,1.2c0,0.4,0,0.6,0.1,0.8c0,0,0.1,0,0.3-0.1c0.1-0.1,0.3-0.1,0.4-0.2
		c0.2-0.1,0.3-0.1,0.4-0.1c0.1,0,0.2-0.1,0.3-0.1c0.3-0.1,0.6-0.3,0.9-0.4s0.7-0.2,1-0.2c0.2,0,0.4,0.1,0.5,0.2
		c0.1,0.2,0.2,0.3,0.2,0.5c0,0.2-0.1,0.3-0.2,0.3c-0.1,0.1-0.2,0.1-0.4,0.2l-3.2,1.2c0,0-0.1,0-0.1,0.1c0,0-0.1,0-0.1,0.1v0.6
		c0,0.4,0,0.8,0,1.3c0,0.4,0.1,0.9,0.1,1.3c0.1,0.3,0.1,0.7,0.2,1c0.1,0.3,0.1,0.7,0.1,1c0,0.1,0,0.2-0.1,0.4
		c-0.1,0.2-0.2,0.3-0.3,0.3c-0.3,0-0.6-0.1-0.8-0.3c-0.2-0.2-0.3-0.4-0.3-0.7c-0.1-0.6-0.1-1.3-0.2-2C36.2,44.7,36.2,44,36,43.4
		L36,43.4z"/>
	<path d="M41.1,45.8l0.6-4.5c0-0.2,0.1-0.3,0.2-0.3c0.1-0.1,0.2-0.1,0.4-0.1c0.3,0,0.5,0.1,0.6,0.2c0.2,0.1,0.3,0.3,0.4,0.5h0
		c0.1,0,0.3,0,0.4-0.1c0.1-0.1,0.2-0.1,0.4-0.1c0.4,0,0.7,0.1,0.9,0.3c0.3,0.2,0.5,0.5,0.6,0.8c0.2,0.3,0.3,0.7,0.4,1.1
		c0.1,0.4,0.1,0.7,0.1,1c0,0.3-0.1,0.7-0.3,1.2c-0.2,0.4-0.4,0.8-0.7,1.2c-0.3,0.4-0.6,0.7-1,1c-0.4,0.3-0.7,0.4-1.1,0.4
		c-0.3,0-0.6-0.1-0.9-0.2c-0.2-0.2-0.5-0.4-0.6-0.6c-0.2-0.2-0.3-0.5-0.3-0.8C41.2,46.4,41.1,46.1,41.1,45.8L41.1,45.8z M42.6,45.9
		c0,0.1,0,0.2,0.1,0.4c0,0.2,0.1,0.3,0.1,0.4c0,0.1,0.1,0.2,0.2,0.3c0.1,0.1,0.2,0.1,0.4,0c0.2-0.1,0.3-0.3,0.5-0.5s0.3-0.4,0.5-0.6
		c0.2-0.2,0.3-0.4,0.4-0.6c0.1-0.2,0.2-0.5,0.2-0.7c0-0.4,0-0.8-0.1-1.1c-0.1-0.3-0.3-0.6-0.4-0.7c-0.2-0.1-0.4-0.2-0.7-0.1
		c-0.2,0.1-0.5,0.4-0.7,0.9c-0.1,0.3-0.2,0.7-0.3,1.1C42.6,45.1,42.6,45.5,42.6,45.9L42.6,45.9z"/>
	<path d="M50.6,46.3c0-0.7,0-1.4,0-2.1c0-0.7,0.1-1.4,0.1-2.1c0-0.7,0.1-1.4,0.1-2.1c0-0.7,0-1.4,0-2.1c0-0.1,0.1-0.2,0.2-0.3
		c0.1-0.1,0.2-0.1,0.3-0.1c0.2,0,0.4,0,0.6,0.1s0.2,0.2,0.3,0.4c0.1,0.2,0.1,0.3,0.1,0.5c0,0.2,0,0.4,0,0.6c0.1,0.3,0.3,0.5,0.5,0.7
		c0.2,0.2,0.4,0.5,0.5,0.7c0,0,0,0,0,0.1c0,0,0,0.1,0,0.1c0.1,0.1,0.2,0.2,0.3,0.4c0.1,0.2,0.2,0.3,0.3,0.5c0.1,0.2,0.2,0.4,0.4,0.6
		l0.1,0.1l1,1.5c0,0,0.1,0.1,0.1,0.1h0c-0.2-1.2-0.3-2.5-0.4-3.8c-0.1-1.3-0.1-2.5-0.1-3.8v-0.9c0.1-0.2,0.2-0.2,0.5-0.2
		c0.2,0,0.4,0.1,0.5,0.2c0.1,0.1,0.2,0.2,0.2,0.4c0,0.2,0.1,0.3,0.1,0.5c0,0.2,0,0.3,0,0.5c0,0,0,0,0,0.1c0,0,0,0.1,0,0.2
		c0,0.1,0,0.2,0.1,0.5c0,0.2,0,0.5,0.1,0.8c0,0.4,0.1,0.8,0.1,1.4c0,0.5,0.1,1.2,0.1,2v0.3l0.6,3.9c0,0.1,0.1,0.2,0.1,0.4
		c0.1,0.2,0.1,0.3,0.1,0.4c0,0.2-0.1,0.4-0.2,0.6c-0.1,0.2-0.3,0.2-0.6,0.2c0,0-0.1,0-0.1,0c-0.1,0-0.1-0.1-0.2-0.1
		c-0.1,0-0.1-0.1-0.2-0.1c-0.1,0-0.1-0.1-0.1-0.1l-2.8-4c0,0,0,0,0-0.1c0,0,0-0.1,0-0.1c-0.1-0.1-0.2-0.2-0.3-0.4
		c-0.1-0.2-0.2-0.3-0.3-0.5c-0.1-0.2-0.2-0.3-0.3-0.4c-0.1-0.1-0.1-0.2-0.1-0.2l-0.1-0.1c-0.1,1.1-0.1,2.2-0.1,3.3
		c0,1.1,0,2.2,0,3.3c0,0.1-0.1,0.3-0.2,0.4c-0.1,0.1-0.2,0.2-0.4,0.2c-0.2,0-0.4-0.1-0.5-0.2c-0.1-0.1-0.2-0.3-0.3-0.5V46.3z"/>
	<path d="M65.1,43.5c0,0.2,0,0.4-0.1,0.5c0,0.1-0.1,0.2-0.1,0.3c-0.1,0.1-0.2,0.2-0.3,0.3c-0.1,0.1-0.3,0.2-0.5,0.4
		c-0.2,0.2-0.5,0.4-0.8,0.7c-0.3,0.3-0.7,0.7-1.2,1.1c-0.2,0.2-0.4,0.4-0.6,0.5c-0.2,0.2-0.4,0.4-0.6,0.5c-0.2,0.1-0.4,0.3-0.7,0.4
		c-0.2,0.1-0.5,0.1-0.7,0.1c-0.5,0-0.9-0.2-1.1-0.5c-0.2-0.3-0.3-0.7-0.3-1.2c0-0.3,0-0.5,0-0.7c0-0.2,0.1-0.5,0.1-0.8
		c-0.1-0.1-0.2-0.2-0.3-0.3c-0.1-0.1-0.1-0.2-0.1-0.4c0-0.1,0-0.2,0.1-0.3c0.1,0,0.1-0.1,0.2-0.1c0.1,0,0.2,0,0.3-0.1
		c0.1,0,0.1-0.1,0.2-0.1c0-0.1,0.1-0.2,0.1-0.4c0.1-0.2,0.1-0.4,0.2-0.6s0.1-0.4,0.2-0.6c0.1-0.2,0.1-0.3,0.1-0.4
		c0.1-0.2,0.2-0.4,0.3-0.6c0.1-0.2,0.2-0.4,0.3-0.5c0.1-0.2,0.3-0.3,0.5-0.4c0.2-0.1,0.4-0.2,0.6-0.2c0.1,0,0.3,0.1,0.5,0.2
		c0.2,0.1,0.4,0.3,0.6,0.5c0.2,0.2,0.3,0.4,0.5,0.6s0.2,0.4,0.2,0.5c0,0.2,0,0.3-0.1,0.5c-0.1,0.1-0.2,0.3-0.3,0.4
		c-0.1,0.1-0.3,0.2-0.4,0.3c-0.1,0.1-0.3,0.2-0.4,0.3c0,0,0,0-0.1,0c0,0-0.1,0-0.1,0.1c0,0,0,0-0.1,0.1s-0.1,0.1-0.1,0.1
		c0,0-0.1,0.1-0.1,0.1c0,0-0.1,0.1-0.1,0.1c0,0-0.1,0.1-0.2,0.2c-0.1,0.1-0.2,0.2-0.3,0.2s-0.2,0.2-0.3,0.2
		c-0.1,0.1-0.2,0.1-0.2,0.1l-0.1,0.1c0,0,0,0.1-0.1,0.3c0,0.2,0,0.3-0.1,0.5s0,0.4-0.1,0.6c0,0.2,0,0.4,0,0.5c0,0,0,0,0,0
		c0,0,0,0,0.1,0c0.1,0,0.2,0,0.3-0.1c0.1-0.1,0.2-0.1,0.3-0.2l2.8-2.6l0.7-1.1c0.1-0.1,0.2-0.2,0.3-0.3c0.2-0.1,0.3-0.2,0.5-0.2
		c0.2,0,0.3,0,0.5,0.2C65.1,42.9,65.1,43.2,65.1,43.5z M61.3,42.2c0.1,0,0.1-0.1,0.1-0.2c0-0.1,0-0.2-0.1-0.2
		c-0.1-0.1-0.1-0.1-0.2-0.1c-0.1,0-0.2,0-0.2,0.1c0,0-0.1,0.1-0.2,0.3c-0.1,0.1-0.2,0.3-0.3,0.4c-0.1,0.1-0.2,0.3-0.2,0.4
		c-0.1,0.1-0.1,0.1,0,0.1L61.3,42.2z"/>
	<path d="M67.2,47.6c-0.1-0.3-0.3-0.9-0.6-2s-0.8-2.7-1.4-4.8c0,0,0-0.1,0-0.1c0-0.1,0-0.1,0-0.1c0-0.1,0.1-0.2,0.3-0.3
		c0.2,0,0.3,0,0.4,0c0.3,0,0.4,0.1,0.6,0.2c0.1,0.1,0.2,0.3,0.3,0.6l1,3.3l0.1,0.1c0.1-0.2,0.2-0.5,0.2-0.8s0.1-0.6,0.1-0.9
		c0-0.3,0.1-0.5,0.2-0.8c0.1-0.2,0.3-0.4,0.7-0.5c0.1,0,0.1,0,0.2,0c0.1,0,0.2,0.1,0.2,0.1c0.1,0.1,0.1,0.1,0.2,0.2
		c0.1,0.1,0.1,0.1,0.1,0.2l0.9,3l0.2,0.3c0-0.2,0.1-0.5,0.2-1c0.1-0.5,0.1-0.9,0.2-1.5c0.1-0.5,0.1-1,0.2-1.4
		c0.1-0.4,0.1-0.7,0.1-0.9c0,0,0-0.1,0-0.1c0-0.1,0-0.1,0-0.1c0.1-0.1,0.2-0.2,0.4-0.2c0.2-0.1,0.3-0.1,0.4,0c0,0,0.1,0,0.2,0.1
		c0.1,0,0.1,0.1,0.2,0.2c0.1,0.1,0.1,0.1,0.2,0.2c0,0.1,0.1,0.1,0.1,0.2l-1,7.1c0,0.1-0.1,0.1-0.1,0.2s-0.1,0.1-0.2,0.1
		c-0.1,0-0.2,0-0.3,0.1c-0.1,0-0.2,0-0.2,0c-0.3-0.1-0.5-0.3-0.7-0.5c-0.2-0.2-0.4-0.5-0.5-0.8c-0.2-0.3-0.3-0.6-0.4-0.9
		c-0.1-0.3-0.3-0.6-0.4-0.8l-0.1,0c-0.1,0.1-0.1,0.3-0.2,0.5c-0.1,0.3-0.1,0.6-0.1,0.9c0,0.3-0.1,0.6-0.1,0.8c0,0.2,0,0.4,0,0.4
		c0,0.2-0.1,0.3-0.3,0.4c-0.2,0.1-0.4,0.1-0.5,0.1c-0.2,0-0.3-0.1-0.4-0.2C67.4,47.9,67.3,47.7,67.2,47.6z"/>
	<path d="M81.1,48.5c0-0.1,0-0.2,0-0.3c0-0.2,0-0.3,0.1-0.5c0-0.2,0.1-0.3,0.1-0.5c0-0.2,0-0.3,0.1-0.3c0.1-0.5,0.1-1,0.2-1.6
		c0.1-0.5,0.1-1,0.1-1.6v-0.3l-0.3-0.1c0,0-0.2-0.1-0.3-0.2c-0.2-0.1-0.4-0.3-0.6-0.4c-0.2-0.2-0.4-0.3-0.7-0.5
		c-0.2-0.2-0.4-0.3-0.5-0.4c-0.1,0-0.2-0.1-0.3-0.3c-0.2-0.1-0.3-0.3-0.5-0.4c-0.2-0.2-0.3-0.3-0.5-0.5c-0.2-0.1-0.3-0.2-0.3-0.3
		c-0.1-0.1-0.2-0.2-0.3-0.3c-0.1-0.1-0.1-0.2-0.1-0.4c0-0.2,0.1-0.3,0.2-0.4c0.2-0.1,0.3-0.1,0.5-0.1c0.1,0,0.2,0,0.4,0
		c0.1,0,0.2,0.1,0.3,0.2c0.4,0.5,0.9,1,1.5,1.5c0.5,0.5,1.1,0.9,1.7,1.3l0.1-0.2l0.7-4.7c0-0.1,0.1-0.2,0.2-0.2
		c0.1,0,0.2-0.1,0.3-0.1c0.3,0,0.5,0.1,0.7,0.2c0.2,0.1,0.2,0.4,0.2,0.7v0c0,0,0,0,0,0.1S84,38,84,38c0,0.1,0,0.1,0,0.2
		c0,0.1,0,0.1,0,0.1c0,0.1-0.1,0.4-0.1,0.8c-0.1,0.4-0.1,0.9-0.2,1.4c-0.1,0.6-0.1,1.2-0.2,1.8c-0.1,0.7-0.2,1.3-0.2,2
		c-0.1,0.7-0.2,1.3-0.2,1.9c-0.1,0.6-0.2,1.2-0.2,1.6c0,0.1,0,0.2,0,0.4c0,0.2,0,0.3-0.1,0.4c0,0.1-0.1,0.3-0.2,0.3
		c-0.1,0.1-0.2,0.1-0.4,0.1c-0.2,0-0.4-0.1-0.6-0.2C81.3,48.9,81.1,48.8,81.1,48.5z"/>
	<path d="M83.6,45.8l0.6-4.5c0-0.2,0.1-0.3,0.2-0.3c0.1-0.1,0.2-0.1,0.4-0.1c0.3,0,0.5,0.1,0.6,0.2c0.2,0.1,0.3,0.3,0.4,0.5h0
		c0.1,0,0.3,0,0.4-0.1c0.1-0.1,0.2-0.1,0.4-0.1c0.4,0,0.7,0.1,0.9,0.3c0.3,0.2,0.5,0.5,0.6,0.8c0.2,0.3,0.3,0.7,0.4,1.1
		c0.1,0.4,0.1,0.7,0.1,1c0,0.3-0.1,0.7-0.3,1.2c-0.2,0.4-0.4,0.8-0.7,1.2c-0.3,0.4-0.6,0.7-1,1c-0.4,0.3-0.7,0.4-1.1,0.4
		c-0.3,0-0.6-0.1-0.9-0.2c-0.2-0.2-0.5-0.4-0.6-0.6c-0.2-0.2-0.3-0.5-0.3-0.8C83.7,46.4,83.6,46.1,83.6,45.8L83.6,45.8z M85.1,45.9
		c0,0.1,0,0.2,0.1,0.4c0,0.2,0.1,0.3,0.1,0.4c0,0.1,0.1,0.2,0.2,0.3c0.1,0.1,0.2,0.1,0.4,0c0.2-0.1,0.3-0.3,0.5-0.5
		c0.2-0.2,0.3-0.4,0.5-0.6c0.2-0.2,0.3-0.4,0.4-0.6c0.1-0.2,0.2-0.5,0.2-0.7c0-0.4,0-0.8-0.1-1.1S87,43,86.9,42.8
		c-0.2-0.1-0.4-0.2-0.7-0.1c-0.2,0.1-0.5,0.4-0.7,0.9c-0.1,0.3-0.2,0.7-0.3,1.1C85.1,45.1,85.1,45.5,85.1,45.9L85.1,45.9z"/>
	<path d="M89.8,47.7c0-0.4-0.1-1-0.1-1.7c-0.1-0.7-0.1-1.4-0.2-2.2c-0.1-0.8-0.1-1.5-0.2-2.1c-0.1-0.7-0.1-1.2-0.2-1.6
		c0-0.2,0.1-0.2,0.2-0.3c0.1,0,0.3-0.1,0.4-0.1c0.2,0,0.3,0,0.5,0.1c0.2,0.1,0.3,0.2,0.3,0.4c0,0,0,0.1,0,0.3c0,0.1,0,0.2,0,0.4
		c0,0.1,0,0.3,0,0.4c0,0.1,0,0.2,0,0.3c0,0.1,0,0.1,0,0.2c0,0,0,0.1,0,0.1c0,0,0,0.1,0,0.1c0,0,0,0.1,0.1,0.2c0,0,0-0.1,0.1-0.1
		c0,0,0-0.1,0.1-0.1c0.2-0.3,0.4-0.5,0.5-0.7c0.2-0.2,0.4-0.4,0.5-0.6c0.2-0.2,0.4-0.4,0.6-0.6c0.2-0.2,0.5-0.4,0.8-0.7
		c0.1-0.1,0.1-0.1,0.2-0.1c0,0,0.1-0.1,0.1-0.1c0,0,0.1,0,0.1,0c0,0,0.1,0,0.1,0c0.2,0,0.4,0.1,0.6,0.2c0.2,0.1,0.3,0.3,0.3,0.5
		c0,0.1,0,0.2-0.1,0.3c-0.1,0.1-0.1,0.2-0.2,0.2c-0.1,0.1-0.2,0.1-0.3,0.2c-0.1,0.1-0.2,0.1-0.2,0.1c-0.3,0.3-0.6,0.6-1,0.9
		c-0.3,0.3-0.6,0.7-0.9,1.1c-0.3,0.4-0.5,0.8-0.7,1.2c-0.2,0.4-0.3,0.9-0.3,1.3c0,0.4,0,0.8,0.1,1.2c0.1,0.4,0.1,0.8,0.1,1.2v0.6
		c-0.1,0.1-0.2,0.2-0.2,0.2c-0.1,0.1-0.2,0.1-0.3,0.1c-0.2,0-0.4-0.1-0.6-0.3C90,48,89.9,47.9,89.8,47.7z"/>
	<path d="M95,49.1c0-0.1,0-0.2,0-0.3c0-0.1,0-0.3,0-0.4c0-0.2,0-0.3,0-0.4c0-0.1,0-0.2,0-0.3c0-0.3,0-0.8,0-1.5c0-0.7,0-1.4,0-2.2
		c0-0.8,0-1.6,0-2.4c0-0.8,0-1.6,0-2.3c0-0.7,0-1.3,0-1.7c0-0.5,0-0.7,0-0.7c0-0.1,0-0.2,0.1-0.4c0.1-0.1,0.2-0.2,0.3-0.1
		c0.1,0,0.2,0,0.3,0c0.1,0,0.2,0.1,0.3,0.1c0.1,0.1,0.2,0.1,0.3,0.2c0.1,0.1,0.1,0.2,0.1,0.3v5.1h0.1l2-2.3c0.1-0.1,0.2-0.2,0.2-0.4
		c0.1-0.1,0.2-0.3,0.2-0.4c0.1-0.1,0.2-0.2,0.3-0.3c0.1-0.1,0.2-0.2,0.4-0.2c0.2,0.1,0.5,0.1,0.6,0.2c0.2,0.1,0.3,0.3,0.3,0.6
		c0,0,0,0.1,0,0.1c0,0.1,0,0.1,0,0.1c0,0-0.1,0.1-0.2,0.3c-0.1,0.1-0.3,0.4-0.5,0.7c-0.2,0.3-0.6,0.7-1,1.2c-0.4,0.5-1,1.2-1.6,2
		l0.2,0.1l3.4,0.3c0.2,0,0.3,0.1,0.4,0.3c0.1,0.1,0.2,0.3,0.2,0.4c0,0.2-0.1,0.4-0.3,0.5c-0.2,0.1-0.4,0.2-0.5,0.2
		c0,0,0-0.1-0.1-0.1c-0.1,0-0.2,0-0.5,0c-0.3,0-0.6-0.1-1.2-0.1c-0.5-0.1-1.2-0.1-2.1-0.3l0.1,4.1c0,0.2,0,0.4-0.1,0.5
		c-0.1,0.1-0.3,0.2-0.5,0.2c-0.2,0-0.4-0.1-0.5-0.2C95.2,49.4,95.1,49.3,95,49.1z"/>
</g>
</svg>
