<?xml version="1.0" encoding="utf-8"?>
<!-- Generator: Adobe Illustrator 22.1.0, SVG Export Plug-In . SVG Version: 6.00 Build 0)  -->
<svg version="1.1" id="Layer_1" xmlns="http://www.w3.org/2000/svg" xmlns:xlink="http://www.w3.org/1999/xlink" x="0px" y="0px"
	 viewBox="0 0 112.1 71.1" style="enable-background:new 0 0 112.1 71.1;" xml:space="preserve">
<style type="text/css">
	.st0{fill:#676464;}
	.st1{font-family:'Arial-Black';}
	.st2{font-size:9px;}
	.st3{fill:#E5A812;}
	.st4{clip-path:url(#SVGID_2_);fill:#333331;}
	.st5{fill:#F04E29;}
	.st6{fill:#9CCDE4;}
	.st7{fill:#0097C1;}
</style>
<g>
	<text transform="matrix(1 0 0 1 1.220703e-04 68.3449)" class="st0 st1 st2">come to new york</text>
	<path class="st3" d="M12,0h16.5L50,31.6V0h16.6v57.1H50L28.6,25.8v31.4H12V0z"/>
	<g>
		<defs>
			<path id="SVGID_1_" d="M12,0h16.5L50,31.6V0h16.6v57.1H50L28.6,25.8v31.4H12V0z"/>
		</defs>
		<clipPath id="SVGID_2_">
			<use xlink:href="#SVGID_1_"  style="overflow:visible;"/>
		</clipPath>
		<path class="st4" d="M49.9,0h14.7l14.5,22.3L93.6,0h16.5L87.9,33.2v23.9H70.2l-2-23.9L49.9,0z"/>
		<path class="st4" d="M14,0h14.5l4.1,57.1H14V0z"/>
	</g>
	<path class="st5" d="M50,0l16.6,0l14.5,22.3L95.6,0h16.5L89.9,33.2v23.9H72.2V33.2L50,0z"/>
	<path class="st6" d="M12,0h16.5l0.1,57.1H12V0z"/>
	<polygon class="st7" points="12,0 12,57.1 28.6,57.1 28.4,0 	"/>
</g>
</svg>
